<mxfile host="app.diagrams.net" modified="2024-02-05T01:59:58.180Z" agent="Mozilla/5.0 (Windows NT 10.0; Win64; x64) AppleWebKit/537.36 (KHTML, like Gecko) Chrome/121.0.0.0 Safari/537.36 Edg/121.0.0.0" etag="4y-65DZSGmKrbVPF-2qE" version="23.1.1" type="github">
  <diagram id="bdKxgwNs5_PByqbfbBYj" name="output_context_diagram">
    <mxGraphModel dx="1002" dy="719" grid="1" gridSize="10" guides="1" tooltips="1" connect="1" arrows="1" fold="1" page="1" pageScale="1" pageWidth="827" pageHeight="1169" math="0" shadow="0">
      <root>
        <mxCell id="0" />
        <mxCell id="1" parent="0" />
        <mxCell id="lMWQYHVWwQ0GgZDV83op-1" value="I/O Module&lt;br&gt;(Output Board)" style="ellipse;whiteSpace=wrap;html=1;rounded=0;shadow=0;dashed=0;comic=0;fontFamily=Verdana;fontSize=22;fontColor=#0069D1;fillColor=#f5f5f5;strokeColor=#666666;" vertex="1" parent="1">
          <mxGeometry x="424" y="230" width="170" height="157.5" as="geometry" />
        </mxCell>
        <mxCell id="lMWQYHVWwQ0GgZDV83op-2" value="" style="endArrow=classic;html=1;rounded=0;entryX=0;entryY=0.25;entryDx=0;entryDy=0;exitX=1;exitY=0;exitDx=0;exitDy=0;" edge="1" parent="1" source="lMWQYHVWwQ0GgZDV83op-1" target="lMWQYHVWwQ0GgZDV83op-19">
          <mxGeometry width="50" height="50" relative="1" as="geometry">
            <mxPoint x="484" y="330" as="sourcePoint" />
            <mxPoint x="678.6799999999998" y="184.36" as="targetPoint" />
            <Array as="points">
              <mxPoint x="614" y="210" />
            </Array>
          </mxGeometry>
        </mxCell>
        <mxCell id="lMWQYHVWwQ0GgZDV83op-3" value="Watchdog Flip" style="edgeLabel;html=1;align=center;verticalAlign=middle;resizable=0;points=[];" vertex="1" connectable="0" parent="lMWQYHVWwQ0GgZDV83op-2">
          <mxGeometry x="0.0021" y="2" relative="1" as="geometry">
            <mxPoint y="1" as="offset" />
          </mxGeometry>
        </mxCell>
        <mxCell id="lMWQYHVWwQ0GgZDV83op-4" value="" style="endArrow=classic;html=1;rounded=0;exitX=0.358;exitY=1.017;exitDx=0;exitDy=0;exitPerimeter=0;entryX=0.988;entryY=0.438;entryDx=0;entryDy=0;entryPerimeter=0;" edge="1" parent="1" source="lMWQYHVWwQ0GgZDV83op-19" target="lMWQYHVWwQ0GgZDV83op-1">
          <mxGeometry width="50" height="50" relative="1" as="geometry">
            <mxPoint x="723.27" y="221.64999999999998" as="sourcePoint" />
            <mxPoint x="590" y="290" as="targetPoint" />
            <Array as="points">
              <mxPoint x="664" y="270" />
            </Array>
          </mxGeometry>
        </mxCell>
        <mxCell id="lMWQYHVWwQ0GgZDV83op-5" value="Watchdog Alive" style="edgeLabel;html=1;align=center;verticalAlign=middle;resizable=0;points=[];" vertex="1" connectable="0" parent="lMWQYHVWwQ0GgZDV83op-4">
          <mxGeometry x="-0.0046" relative="1" as="geometry">
            <mxPoint as="offset" />
          </mxGeometry>
        </mxCell>
        <mxCell id="lMWQYHVWwQ0GgZDV83op-6" value="" style="endArrow=classic;html=1;rounded=0;entryX=0.892;entryY=1.083;entryDx=0;entryDy=0;exitX=0.035;exitY=0.317;exitDx=0;exitDy=0;exitPerimeter=0;entryPerimeter=0;" edge="1" parent="1" source="lMWQYHVWwQ0GgZDV83op-1" target="lMWQYHVWwQ0GgZDV83op-16">
          <mxGeometry width="50" height="50" relative="1" as="geometry">
            <mxPoint x="430" y="290" as="sourcePoint" />
            <mxPoint x="356" y="204.28999999999996" as="targetPoint" />
            <Array as="points">
              <mxPoint x="370" y="260" />
            </Array>
          </mxGeometry>
        </mxCell>
        <mxCell id="lMWQYHVWwQ0GgZDV83op-7" value="Channel Tx Data" style="edgeLabel;html=1;align=center;verticalAlign=middle;resizable=0;points=[];" vertex="1" connectable="0" parent="lMWQYHVWwQ0GgZDV83op-6">
          <mxGeometry x="0.0021" y="2" relative="1" as="geometry">
            <mxPoint y="1" as="offset" />
          </mxGeometry>
        </mxCell>
        <mxCell id="lMWQYHVWwQ0GgZDV83op-8" value="" style="endArrow=classic;html=1;rounded=0;entryX=0.294;entryY=0.05;entryDx=0;entryDy=0;entryPerimeter=0;exitX=1;exitY=0.5;exitDx=0;exitDy=0;" edge="1" parent="1" source="lMWQYHVWwQ0GgZDV83op-16" target="lMWQYHVWwQ0GgZDV83op-1">
          <mxGeometry width="50" height="50" relative="1" as="geometry">
            <mxPoint x="429.97" y="171.62" as="sourcePoint" />
            <mxPoint x="601" y="302" as="targetPoint" />
            <Array as="points">
              <mxPoint x="390" y="190" />
            </Array>
          </mxGeometry>
        </mxCell>
        <mxCell id="lMWQYHVWwQ0GgZDV83op-9" value="Channel Rx Data" style="edgeLabel;html=1;align=center;verticalAlign=middle;resizable=0;points=[];" vertex="1" connectable="0" parent="lMWQYHVWwQ0GgZDV83op-8">
          <mxGeometry x="-0.0046" relative="1" as="geometry">
            <mxPoint as="offset" />
          </mxGeometry>
        </mxCell>
        <mxCell id="lMWQYHVWwQ0GgZDV83op-10" value="" style="endArrow=classic;html=1;rounded=0;exitX=0;exitY=1;exitDx=0;exitDy=0;entryX=1;entryY=0.75;entryDx=0;entryDy=0;" edge="1" parent="1" source="lMWQYHVWwQ0GgZDV83op-1" target="lMWQYHVWwQ0GgZDV83op-18">
          <mxGeometry width="50" height="50" relative="1" as="geometry">
            <mxPoint x="484" y="330" as="sourcePoint" />
            <mxPoint x="336.73" y="440.95000000000005" as="targetPoint" />
            <Array as="points">
              <mxPoint x="394" y="420" />
            </Array>
          </mxGeometry>
        </mxCell>
        <mxCell id="lMWQYHVWwQ0GgZDV83op-11" value="CAN Tx Data" style="edgeLabel;html=1;align=center;verticalAlign=middle;resizable=0;points=[];" vertex="1" connectable="0" parent="lMWQYHVWwQ0GgZDV83op-10">
          <mxGeometry x="0.0189" y="-3" relative="1" as="geometry">
            <mxPoint as="offset" />
          </mxGeometry>
        </mxCell>
        <mxCell id="lMWQYHVWwQ0GgZDV83op-12" value="" style="endArrow=classic;html=1;rounded=0;exitX=0.833;exitY=-0.083;exitDx=0;exitDy=0;entryX=0;entryY=0.642;entryDx=0;entryDy=0;entryPerimeter=0;exitPerimeter=0;" edge="1" parent="1" source="lMWQYHVWwQ0GgZDV83op-18" target="lMWQYHVWwQ0GgZDV83op-1">
          <mxGeometry width="50" height="50" relative="1" as="geometry">
            <mxPoint x="314.9619407771256" y="386.1091270347397" as="sourcePoint" />
            <mxPoint x="534" y="280" as="targetPoint" />
            <Array as="points">
              <mxPoint x="364" y="350" />
            </Array>
          </mxGeometry>
        </mxCell>
        <mxCell id="lMWQYHVWwQ0GgZDV83op-13" value="CAN Rx Data" style="edgeLabel;html=1;align=center;verticalAlign=middle;resizable=0;points=[];" vertex="1" connectable="0" parent="lMWQYHVWwQ0GgZDV83op-12">
          <mxGeometry x="0.0227" y="2" relative="1" as="geometry">
            <mxPoint as="offset" />
          </mxGeometry>
        </mxCell>
        <mxCell id="lMWQYHVWwQ0GgZDV83op-14" value="" style="endArrow=classic;html=1;rounded=0;entryX=0.25;entryY=0;entryDx=0;entryDy=0;exitX=1;exitY=1;exitDx=0;exitDy=0;" edge="1" parent="1" source="lMWQYHVWwQ0GgZDV83op-1" target="lMWQYHVWwQ0GgZDV83op-17">
          <mxGeometry width="50" height="50" relative="1" as="geometry">
            <mxPoint x="490" y="480" as="sourcePoint" />
            <mxPoint x="534" y="280" as="targetPoint" />
            <Array as="points">
              <mxPoint x="630" y="380" />
            </Array>
          </mxGeometry>
        </mxCell>
        <mxCell id="lMWQYHVWwQ0GgZDV83op-15" value="Digital Output" style="edgeLabel;html=1;align=center;verticalAlign=middle;resizable=0;points=[];" vertex="1" connectable="0" parent="lMWQYHVWwQ0GgZDV83op-14">
          <mxGeometry x="0.0951" y="2" relative="1" as="geometry">
            <mxPoint y="2" as="offset" />
          </mxGeometry>
        </mxCell>
        <mxCell id="lMWQYHVWwQ0GgZDV83op-16" value="Other Channel&lt;br&gt;(UART 1)&lt;br&gt;(UART 5)" style="rounded=0;whiteSpace=wrap;html=1;" vertex="1" parent="1">
          <mxGeometry x="240" y="150" width="120" height="60" as="geometry" />
        </mxCell>
        <mxCell id="lMWQYHVWwQ0GgZDV83op-17" value="Digital Output" style="rounded=0;whiteSpace=wrap;html=1;" vertex="1" parent="1">
          <mxGeometry x="630" y="420" width="120" height="60" as="geometry" />
        </mxCell>
        <mxCell id="lMWQYHVWwQ0GgZDV83op-18" value="CPU Module" style="rounded=0;whiteSpace=wrap;html=1;" vertex="1" parent="1">
          <mxGeometry x="230" y="410" width="120" height="60" as="geometry" />
        </mxCell>
        <mxCell id="lMWQYHVWwQ0GgZDV83op-19" value="WatchDog" style="rounded=0;whiteSpace=wrap;html=1;" vertex="1" parent="1">
          <mxGeometry x="660" y="170" width="120" height="60" as="geometry" />
        </mxCell>
      </root>
    </mxGraphModel>
  </diagram>
</mxfile>
